<?xml version="1.0" standalone="no"?>
<!DOCTYPE svg PUBLIC "-//W3C//DTD SVG 20010904//EN"
 "http://www.w3.org/TR/2001/REC-SVG-20010904/DTD/svg10.dtd">
<svg version="1.0" xmlns="http://www.w3.org/2000/svg"
 width="588.000000pt" height="588.000000pt" viewBox="0 0 588.000000 588.000000"
 preserveAspectRatio="xMidYMid meet">
<metadata>
Created by potrace 1.14, written by Peter Selinger 2001-2017
</metadata>
<g transform="translate(0.000000,588.000000) scale(0.100000,-0.100000)"
fill="#000000" stroke="none">
<path d="M2785 5791 c3 -5 1 -13 -5 -16 -6 -4 -7 -12 -3 -18 11 -14 10 -68 -1
-85 -4 -7 -2 -12 4 -12 6 0 8 -5 3 -12 -12 -21 -12 -38 0 -38 9 0 9 -2 0 -8
-6 -4 -13 -31 -14 -60 -2 -28 -5 -52 -9 -52 -3 0 -7 -17 -8 -37 -4 -66 -7 -78
-22 -90 -13 -11 -13 -12 0 -13 12 0 12 -2 2 -9 -8 -4 -13 -11 -13 -15 1 -3 1
-7 0 -8 -1 -6 -8 -34 -12 -58 -3 -14 -6 -25 -7 -25 -1 0 -3 -7 -5 -15 -9 -45
-37 -130 -43 -130 -4 0 -8 -10 -8 -23 -3 -35 -8 -50 -22 -66 -7 -7 -11 -20 -8
-27 3 -8 1 -14 -5 -14 -6 0 -9 -6 -6 -14 3 -8 -1 -17 -9 -20 -9 -3 -12 -10 -9
-16 3 -5 1 -10 -5 -10 -6 0 -9 -4 -5 -9 3 -5 1 -12 -5 -16 -6 -4 -8 -11 -5
-16 4 -5 -1 -12 -9 -15 -9 -3 -16 -10 -16 -16 0 -5 -13 -29 -30 -53 -16 -24
-30 -49 -30 -55 0 -6 -4 -8 -10 -5 -6 4 -10 -5 -10 -19 0 -16 -5 -25 -12 -23
-7 1 -12 -4 -11 -10 2 -7 -5 -13 -14 -13 -9 0 -13 -3 -10 -6 7 -7 -77 -132
-97 -146 -6 -4 -7 -8 -3 -8 5 0 2 -7 -5 -15 -29 -32 -38 -45 -33 -45 3 0 -5
-10 -18 -22 -13 -13 -26 -31 -30 -41 -4 -11 -12 -15 -18 -11 -7 4 -9 3 -5 -4
3 -6 0 -16 -7 -24 -11 -11 -48 -57 -107 -131 -8 -11 -21 -25 -28 -33 -7 -8
-10 -14 -6 -14 4 0 -5 -9 -20 -21 -14 -11 -24 -24 -21 -29 3 -4 -2 -11 -11
-14 -8 -3 -12 -10 -9 -16 3 -5 0 -10 -7 -10 -8 0 -20 -10 -28 -22 -8 -12 -32
-39 -52 -60 -20 -21 -35 -38 -33 -38 1 0 -33 -36 -77 -80 -44 -44 -85 -80 -90
-80 -5 0 -6 -4 -3 -10 3 -6 -2 -10 -11 -10 -10 0 -15 -3 -12 -6 8 -7 -35 -51
-44 -47 -5 2 -8 -1 -8 -7 0 -10 -66 -80 -72 -76 -2 1 -33 -28 -69 -66 -37 -37
-65 -68 -62 -68 2 0 -11 -13 -29 -30 -18 -16 -29 -30 -25 -30 4 0 -7 -14 -25
-30 -17 -17 -27 -30 -23 -30 4 0 -5 -12 -21 -27 -16 -15 -28 -28 -27 -30 6 -8
-10 -32 -18 -27 -5 3 -9 -4 -9 -15 0 -12 -3 -21 -8 -21 -4 0 -18 -20 -31 -45
-13 -25 -28 -45 -33 -45 -5 0 -6 -4 -3 -10 3 -5 1 -10 -5 -10 -6 0 -9 -4 -5
-9 3 -5 1 -12 -5 -16 -6 -4 -8 -10 -5 -15 3 -4 -2 -11 -11 -14 -8 -3 -13 -10
-10 -15 3 -5 -1 -14 -9 -21 -8 -7 -12 -16 -9 -21 3 -5 1 -9 -5 -9 -5 0 -12
-13 -16 -30 -4 -17 -11 -30 -16 -30 -5 0 -8 -3 -7 -7 1 -5 -6 -26 -16 -48 -10
-22 -19 -48 -21 -59 -3 -10 -9 -24 -15 -32 -7 -7 -9 -18 -5 -24 3 -5 1 -10 -5
-10 -6 0 -9 -4 -5 -9 3 -5 0 -13 -6 -16 -5 -4 -8 -13 -5 -21 3 -8 2 -14 -3
-14 -5 0 -11 -12 -14 -27 -7 -35 -15 -68 -17 -68 -1 0 -4 -11 -6 -25 -10 -54
-13 -65 -15 -65 -1 0 -3 -9 -4 -20 -1 -11 -6 -38 -10 -60 -4 -22 -8 -51 -9
-65 -1 -14 -4 -30 -7 -35 -3 -6 -5 -34 -5 -63 1 -28 -1 -52 -4 -52 -3 0 -4
-64 -3 -142 4 -214 7 -276 14 -272 4 2 9 -8 12 -21 2 -14 0 -28 -5 -31 -5 -3
-4 -12 2 -20 7 -7 13 -31 13 -54 1 -22 5 -40 10 -40 4 0 7 -11 7 -24 0 -13 7
-40 15 -60 8 -20 15 -39 15 -43 0 -25 14 -73 21 -73 5 0 8 -3 7 -7 -2 -8 21
-81 31 -98 3 -5 7 -19 8 -30 2 -10 8 -22 13 -25 6 -3 11 -18 12 -33 1 -14 4
-24 7 -22 6 6 31 -44 31 -61 0 -8 4 -14 9 -14 8 0 15 -16 19 -43 1 -4 8 -15
17 -23 8 -9 15 -22 15 -30 0 -8 5 -14 10 -14 6 0 10 -7 10 -15 0 -8 5 -15 12
-15 6 0 9 -3 5 -6 -3 -3 3 -15 13 -27 11 -11 17 -23 15 -27 -2 -3 5 -13 16
-20 10 -8 19 -18 19 -23 0 -10 61 -90 72 -95 5 -2 8 -13 8 -23 0 -11 3 -18 8
-16 4 3 16 -6 27 -20 11 -14 31 -37 45 -51 14 -14 24 -29 23 -32 0 -3 5 -11
13 -18 8 -7 14 -10 14 -7 0 4 7 0 15 -9 8 -8 15 -20 15 -27 0 -7 2 -10 5 -7 3
3 25 -13 49 -36 79 -74 131 -116 144 -116 7 0 10 -5 7 -10 -3 -6 1 -10 9 -10
9 0 16 -4 16 -8 0 -5 16 -17 35 -28 19 -10 35 -22 35 -27 0 -4 4 -5 10 -2 5 3
10 1 10 -4 0 -6 5 -11 11 -11 6 0 17 -7 26 -15 8 -8 19 -13 24 -10 5 4 9 2 9
-4 0 -10 69 -50 81 -47 3 0 14 -7 23 -17 10 -10 32 -21 48 -24 16 -3 32 -12
35 -19 3 -8 8 -12 12 -9 4 2 24 -4 43 -15 19 -10 44 -20 54 -22 10 -2 22 -7
25 -11 3 -4 16 -9 27 -10 12 -1 22 -5 22 -10 0 -4 5 -5 10 -2 6 3 10 1 10 -6
0 -8 5 -7 17 2 11 10 14 10 9 2 -5 -9 0 -13 13 -13 12 0 21 -4 21 -10 0 -5 7
-7 15 -4 8 4 22 1 30 -6 8 -7 21 -10 29 -7 7 3 18 1 23 -4 6 -6 23 -12 39 -14
16 -2 40 -7 54 -10 14 -4 45 -9 70 -12 25 -3 46 -9 48 -14 2 -5 12 -4 22 1 10
6 21 6 24 1 3 -4 16 -7 28 -7 13 1 31 -2 41 -6 11 -6 17 -5 17 4 0 9 3 9 10
-2 7 -11 10 -11 10 -2 0 8 5 10 13 5 6 -4 30 -8 52 -8 22 0 45 -4 51 -8 6 -3
14 -3 18 0 4 4 46 8 94 10 74 3 132 7 202 14 8 1 18 7 22 13 5 7 8 7 8 -2 0
-7 5 -10 10 -7 11 7 61 17 98 19 12 0 22 5 22 10 0 4 6 6 14 3 8 -3 17 -3 20
1 4 3 19 8 33 10 15 2 42 10 61 18 19 8 43 14 53 14 11 0 19 4 19 9 0 5 6 8
13 8 21 -2 97 26 97 35 0 5 5 6 10 3 6 -4 17 -1 25 5 8 7 15 9 15 6 0 -4 7 0
16 9 9 9 23 14 30 11 8 -3 14 -2 14 2 0 11 61 43 71 36 5 -3 9 0 9 5 0 6 7 11
15 11 8 0 15 5 15 12 0 6 3 8 6 5 4 -4 20 5 36 18 16 14 38 25 49 25 11 0 17
5 14 10 -3 6 1 10 9 10 8 0 31 13 49 30 19 16 38 30 41 30 7 0 64 41 93 65 6
6 30 26 54 45 66 55 184 173 182 182 -2 4 3 8 11 8 8 0 18 9 21 20 3 11 13 20
21 20 8 0 14 7 14 15 0 9 7 18 15 21 8 4 12 10 9 15 -3 5 0 9 5 9 6 0 11 7 11
16 0 8 4 13 9 9 5 -3 12 4 16 15 3 11 10 20 14 20 9 0 35 51 32 63 -1 5 3 6 9
2 5 -3 13 2 17 12 3 10 15 29 25 42 10 13 15 27 12 32 -3 5 2 9 11 9 9 0 14 4
11 9 -3 5 1 14 9 21 8 7 13 16 10 20 -3 4 2 13 10 20 8 7 15 17 15 22 0 6 9
22 19 36 10 15 19 29 19 32 0 3 6 19 13 35 7 17 12 33 11 38 -1 4 3 7 9 7 5 0
7 5 4 10 -3 5 -1 10 4 10 6 0 10 3 9 8 -1 4 4 23 11 42 8 19 15 37 16 40 1 3
8 26 15 53 8 26 17 47 21 47 3 0 6 10 5 22 -1 13 2 26 6 29 5 3 10 20 11 37 1
18 6 32 11 32 4 0 6 7 3 15 -4 8 -2 17 3 20 5 3 7 14 5 25 -2 11 0 20 4 20 4
0 8 6 9 13 0 6 2 29 3 50 1 20 5 37 9 37 3 0 5 15 5 33 -1 17 3 38 9 46 9 12
8 13 -3 6 -11 -6 -12 -5 -5 6 12 20 14 53 15 234 0 134 -4 200 -11 200 -1 0
-10 101 -13 147 0 16 -5 28 -10 28 -5 0 -7 9 -4 20 3 11 1 23 -4 26 -5 3 -7
10 -4 15 4 5 3 15 -2 22 -9 15 -14 36 -14 60 0 9 -3 17 -7 17 -4 0 -9 11 -10
25 -1 14 -9 39 -17 55 -9 17 -12 30 -8 30 4 0 2 5 -5 12 -7 7 -12 19 -12 27 0
8 -7 22 -16 32 -8 9 -16 26 -17 38 -1 11 -7 21 -15 21 -7 0 -11 4 -7 9 3 5 0
15 -7 23 -7 7 -14 20 -16 28 -2 8 -8 17 -13 18 -5 2 -7 8 -3 13 3 5 0 9 -7 9
-7 0 -10 3 -6 6 3 4 1 12 -6 20 -22 25 -32 40 -35 53 -1 7 -9 20 -17 28 -8 8
-15 21 -15 29 0 8 -4 14 -10 14 -5 0 -10 4 -10 9 0 12 -81 135 -92 139 -4 2
-8 10 -8 17 0 7 -13 27 -30 45 -16 18 -30 35 -30 38 0 8 -62 62 -72 62 -4 0
-8 7 -8 16 0 8 -4 12 -10 9 -5 -3 -10 -1 -10 5 0 6 -4 8 -10 5 -5 -3 -10 1
-10 10 0 9 -4 14 -8 11 -5 -3 -20 6 -35 20 -15 14 -27 22 -27 17 0 -4 -6 1
-13 12 -8 10 -19 15 -25 11 -7 -4 -12 -1 -12 8 0 10 -6 13 -15 10 -8 -4 -15
-2 -15 3 0 8 -66 37 -80 35 -3 0 -11 5 -19 11 -7 6 -20 12 -29 13 -8 2 -18 8
-22 14 -4 7 -10 11 -14 10 -4 -1 -16 0 -27 3 -10 3 -22 6 -24 6 -3 0 -21 8
-41 16 -20 8 -45 15 -55 15 -11 0 -19 4 -19 9 0 6 -9 8 -20 6 -11 -2 -20 1
-20 6 0 6 -4 8 -8 5 -5 -3 -30 1 -55 9 -26 8 -47 11 -47 8 0 -3 -8 1 -17 8
-15 12 -16 12 -8 -1 7 -12 6 -13 -6 -4 -32 26 -469 53 -469 30 0 -6 -5 -5 -11
1 -7 7 -21 8 -40 3 -20 -6 -29 -5 -29 3 0 8 -3 9 -8 1 -4 -6 -20 -11 -37 -11
-37 -1 -82 -11 -105 -23 -10 -5 -20 -6 -24 -3 -3 3 -6 1 -6 -5 0 -7 -9 -12
-19 -12 -11 0 -26 -7 -34 -15 -8 -8 -17 -12 -20 -9 -3 3 -14 1 -24 -6 -11 -7
-12 -10 -3 -7 8 2 27 0 42 -4 16 -4 30 -3 33 2 4 5 14 5 26 -1 13 -8 19 -7 19
0 0 6 5 8 11 4 12 -7 62 -13 127 -15 17 -1 34 -4 37 -9 2 -4 16 -6 30 -5 14 2
25 -1 25 -6 0 -6 4 -8 9 -5 10 6 93 -13 144 -33 16 -6 33 -9 38 -5 5 3 9 0 9
-5 0 -6 7 -11 15 -11 9 0 35 -9 57 -20 23 -11 47 -20 54 -20 7 0 14 -5 16 -10
2 -6 13 -12 26 -13 12 0 22 -5 22 -9 0 -4 5 -8 11 -8 6 0 23 -9 37 -19 15 -10
30 -19 35 -20 15 -2 137 -84 137 -93 0 -4 6 -8 13 -8 7 0 19 -9 27 -20 8 -11
20 -20 27 -20 6 0 27 -16 46 -35 19 -19 37 -32 41 -28 4 4 4 -1 0 -11 -4 -11
-3 -17 2 -14 5 3 37 -24 72 -58 34 -35 59 -64 56 -64 -4 0 3 -8 14 -19 12 -10
19 -21 15 -25 -3 -3 1 -6 10 -6 15 0 21 -10 15 -26 -2 -3 5 -10 15 -15 9 -6
17 -17 17 -25 0 -8 5 -12 10 -9 6 3 10 0 10 -8 0 -8 7 -20 15 -27 8 -7 12 -16
9 -21 -3 -5 -1 -9 3 -9 5 0 20 -21 33 -47 14 -27 28 -50 31 -53 5 -5 21 -38
23 -50 1 -3 6 -12 11 -20 5 -8 10 -21 12 -29 1 -8 5 -17 10 -20 4 -3 10 -15
11 -26 2 -11 9 -23 14 -26 6 -4 8 -11 5 -16 -3 -5 1 -22 9 -37 7 -16 14 -37
14 -47 0 -10 5 -21 11 -24 6 -4 8 -13 5 -21 -3 -7 -1 -16 5 -20 6 -3 8 -12 5
-19 -2 -7 -2 -16 2 -20 3 -3 8 -16 9 -28 6 -46 9 -63 14 -72 3 -6 7 -27 8 -49
1 -21 2 -41 3 -45 3 -30 -4 -43 -22 -38 -11 3 -23 1 -26 -4 -4 -6 -11 -6 -19
1 -10 8 -15 8 -20 0 -5 -8 -10 -8 -20 0 -10 8 -15 8 -20 0 -5 -8 -10 -8 -20 0
-10 8 -15 8 -20 0 -5 -7 -11 -8 -19 -1 -7 6 -17 6 -26 1 -9 -5 -19 -5 -26 1
-8 7 -14 6 -19 -1 -3 -6 -12 -7 -18 -3 -16 10 -37 13 -37 5 0 -4 -11 -7 -25
-7 -14 0 -25 3 -25 8 0 4 -5 7 -11 7 -5 0 -8 -4 -5 -9 4 -5 -8 -6 -28 -1 -18
4 -40 3 -49 -1 -10 -6 -18 -5 -22 1 -5 8 -11 7 -21 -1 -9 -7 -14 -8 -14 -1 0
7 -10 8 -30 2 -18 -5 -32 -5 -35 1 -4 5 -14 5 -25 -1 -13 -7 -21 -7 -25 0 -5
8 -11 8 -20 0 -9 -8 -15 -8 -20 0 -4 7 -12 7 -25 0 -13 -7 -21 -7 -25 0 -5 8
-11 7 -21 -1 -8 -6 -14 -7 -14 -2 0 5 -9 9 -20 9 -11 0 -20 -3 -20 -6 0 -9
-32 -6 -48 4 -7 4 -12 2 -12 -4 0 -6 -5 -8 -12 -4 -16 10 -48 13 -48 4 0 -8
-43 -5 -58 4 -7 4 -12 2 -12 -5 0 -20 -37 20 -46 49 -4 15 -7 30 -6 34 1 5 -3
8 -9 8 -5 0 -8 4 -4 9 3 5 -1 15 -8 23 -14 13 -17 19 -25 50 -2 10 -8 15 -13
12 -5 -3 -9 2 -9 10 0 9 -5 16 -11 16 -5 0 -7 5 -4 10 3 5 -1 10 -10 10 -9 0
-14 4 -11 9 3 4 -12 24 -34 43 -21 20 -36 38 -33 42 6 5 -6 8 -23 5 -3 -1 -18
11 -33 25 -15 15 -30 23 -34 19 -4 -3 -7 -1 -7 6 0 7 -4 10 -9 7 -5 -3 -11 1
-15 9 -3 8 -12 12 -21 9 -8 -3 -15 -1 -15 5 0 6 -5 11 -11 11 -5 0 -7 -6 -3
-12 5 -7 -5 -3 -20 10 -16 12 -33 19 -38 16 -5 -3 -16 0 -25 8 -14 11 -16 11
-8 -2 7 -13 6 -13 -7 -2 -9 7 -20 12 -24 11 -5 -1 -11 0 -14 1 -16 6 -73 4
-77 -4 -3 -4 -9 -2 -14 5 -7 12 -9 12 -9 0 0 -11 -3 -11 -15 -1 -11 9 -15 9
-15 1 0 -7 -4 -10 -9 -7 -5 4 -12 0 -14 -6 -4 -10 -6 -10 -6 0 -1 10 -6 10
-21 2 -11 -6 -25 -8 -30 -5 -6 3 -10 0 -10 -7 0 -11 -2 -10 -9 0 -7 11 -9 11
-14 -2 -4 -9 -13 -13 -22 -10 -8 3 -15 1 -15 -6 0 -6 -4 -9 -9 -5 -5 3 -12 1
-16 -5 -3 -5 -15 -10 -25 -10 -10 0 -23 -6 -27 -13 -4 -7 -21 -21 -38 -31 -16
-11 -42 -32 -58 -48 -15 -15 -31 -28 -35 -28 -4 0 -18 -18 -32 -40 -14 -22
-28 -40 -33 -40 -4 0 -6 -4 -3 -9 3 -5 -1 -12 -10 -15 -8 -3 -13 -10 -9 -15 3
-5 1 -12 -5 -16 -6 -4 -8 -11 -5 -16 4 -5 2 -9 -3 -9 -6 0 -18 -26 -28 -57
-28 -93 -14 -88 -229 -88 -115 0 -193 4 -197 10 -5 7 -8 7 -8 0 0 -6 -91 -10
-252 -10 -157 0 -256 4 -260 10 -5 7 -8 7 -8 0 0 -8 -29 -10 -72 -6 -10 1 1
137 17 211 4 19 8 43 9 53 0 9 4 17 9 17 5 0 7 6 4 14 -3 8 -3 17 1 20 3 4 7
17 9 29 2 12 6 29 10 37 8 20 8 18 22 72 9 30 17 45 25 41 6 -3 8 -3 4 2 -4 4
-1 20 8 36 8 16 14 30 14 31 -1 11 26 68 32 68 4 0 8 6 8 14 0 8 7 22 16 30 8
9 12 16 9 16 -4 0 5 16 20 36 15 19 28 42 29 50 1 9 7 19 12 22 6 4 20 23 32
42 11 20 30 46 41 59 11 13 18 29 14 35 -3 6 -3 8 1 4 9 -7 36 13 30 23 -2 3
15 25 37 49 22 23 38 44 36 46 -2 2 25 34 60 71 35 37 63 71 63 76 0 4 5 5 10
2 6 -3 10 -1 10 5 0 14 67 79 75 72 3 -3 5 1 5 8 0 7 17 27 37 44 20 17 46 41
56 53 11 12 24 20 29 17 5 -3 7 -2 6 3 -3 9 33 46 71 72 11 8 18 18 15 23 -3
4 -1 8 5 8 6 0 48 37 95 83 46 45 106 102 132 127 27 25 66 64 86 87 20 23 38
39 41 37 3 -3 8 7 11 21 4 14 11 23 15 20 5 -3 18 11 30 30 11 19 25 35 31 35
5 0 10 7 10 15 0 8 5 15 11 15 5 0 7 5 4 10 -3 6 -2 10 3 10 8 0 37 53 30 56
-1 1 5 10 14 20 9 11 18 26 20 34 2 8 9 21 16 28 7 8 10 18 7 23 -4 5 -1 9 5
9 6 0 8 5 5 10 -3 6 -2 10 2 10 9 0 48 80 45 93 -1 4 2 7 7 7 4 0 8 10 7 23
-1 12 3 25 8 29 5 3 11 12 12 20 2 7 5 22 8 33 13 43 37 152 42 190 3 22 9 59
13 81 5 23 7 58 5 78 -1 25 2 34 10 29 7 -4 7 -2 -1 8 -10 12 -10 18 -1 27 7
7 8 12 2 12 -6 0 -9 17 -8 38 1 20 -3 42 -8 49 -6 7 -5 14 2 18 6 3 7 11 4 17
-4 6 -8 30 -10 52 -2 41 -7 67 -19 116 -4 14 -8 34 -8 45 -1 11 -7 23 -13 27
-6 4 -10 19 -9 33 2 14 -1 25 -6 25 -6 0 -7 5 -4 10 3 6 1 10 -4 10 -6 0 -11
5 -11 11 0 5 4 8 9 5 5 -3 0 11 -10 31 -10 20 -16 40 -13 44 3 5 0 9 -6 9 -6
0 -9 4 -5 9 3 5 1 12 -4 16 -6 3 -8 12 -4 20 3 8 0 15 -6 15 -6 0 -11 11 -11
24 0 14 -4 27 -9 30 -5 3 -8 17 -8 32 0 14 -5 29 -10 33 -5 3 -8 13 -8 21 1
15 -13 30 -28 30 -5 0 -6 -4 -2 -9z"/>
</g>
</svg>
